<svg id="Logo_Colour_1" data-name="Logo Colour 1" xmlns="http://www.w3.org/2000/svg" viewBox="0 0 377.51 201.87"><defs><style>.cls-1{fill:#4b89b5}.cls-2{fill:#fadf87}.cls-3{fill:#f2913a}.cls-4{fill:#d53b1b}.cls-5{fill:#58a4cc}.cls-6{fill:none}</style></defs><title>brand</title><path class="cls-1" d="M15 172.59a15.34 15.34 0 0 1 9.33 3.18 1 1 0 0 1 .16 1.44 1 1 0 0 1-1.41.21 13.16 13.16 0 0 0-8.08-2.8 12.63 12.63 0 1 0 0 25.24 12.28 12.28 0 0 0 8-2.8 1 1 0 0 1 1.44.25 1 1 0 0 1-.12 1.45 15.33 15.33 0 0 1-9.32 3.11 14.65 14.65 0 1 1 0-29.28zm76.18 15.84H76.33v12.45a1 1 0 0 1-2 0V174a1 1 0 0 1 2 0v12.45h14.85V174a1 1 0 0 1 1-1 1 1 0 0 1 1 1v26.89a1 1 0 0 1-1 1 1 1 0 0 1-1-1zM144.83 174a1 1 0 0 1 2 0v16.2a9.65 9.65 0 0 0 19.31 0V174a1 1 0 0 1 2 0v16.2a11.67 11.67 0 0 1-23.34 0zm88.09 21.36a5.21 5.21 0 0 0-2.35-4.37 9.13 9.13 0 0 0-3.34-1.44 1.55 1.55 0 0 0-.21-.08h-7v11.42a1 1 0 0 1-1 1 1 1 0 0 1-1-1V174a1 1 0 0 1 .91-1h8.25a8.25 8.25 0 0 1 3.46 15.71 4.35 4.35 0 0 0 .41.21 7.3 7.3 0 0 1 3.87 6.43 11.18 11.18 0 0 0 .37 3.34 1.43 1.43 0 0 0 .41.7 1.08 1.08 0 0 1 1.11.67 1.11 1.11 0 0 1-.66 1.31 4 4 0 0 1-.5 0h-.07a2.3 2.3 0 0 1-1.86-1.32 10.2 10.2 0 0 1-.8-4.69zM227.15 175H220v12.45h7.29a6.23 6.23 0 0 0-.16-12.45zm72.17-2.41a15.34 15.34 0 0 1 9.33 3.18 1 1 0 0 1 .16 1.44 1 1 0 0 1-1.4.21 13.17 13.17 0 0 0-8.08-2.8 12.63 12.63 0 1 0 0 25.24 12.27 12.27 0 0 0 8-2.8 1 1 0 0 1 1.44.25 1 1 0 0 1-.12 1.45 15.33 15.33 0 0 1-9.33 3.13 14.65 14.65 0 1 1 0-29.28zm76.17 15.84h-14.85v12.45a1 1 0 0 1-1 1 1 1 0 0 1-1-1V174a1 1 0 0 1 1-1 1 1 0 0 1 1 1v12.45h14.85V174a1 1 0 0 1 2 0v26.89a1 1 0 0 1-1 1 1 1 0 0 1-1-1z"/><circle class="cls-2" cx="251.14" cy="134.17" r="6.04" transform="rotate(-72.18 251.143 134.163)"/><circle class="cls-3" cx="234.8" cy="102.97" r="7" transform="rotate(-72.17 234.792 102.976)"/><circle class="cls-2" cx="332.25" cy="78.44" r="6.04" transform="rotate(-72.17 332.262 78.433)"/><circle class="cls-2" cx="308.72" cy="135.83" r="4.94" transform="rotate(-72.17 308.704 135.835)"/><circle class="cls-1" cx="260.74" cy="137.29" r="6.63" transform="rotate(-72.19 260.727 137.29)"/><circle class="cls-3" cx="337.39" cy="127.11" r="5.17" transform="rotate(-72.16 337.405 127.11)"/><path class="cls-4" d="M343.39 137.83a5.56 5.56 0 1 1-3.59-7 5.56 5.56 0 0 1 3.59 7z"/><circle class="cls-3" cx="299.36" cy="142.78" r="7.58" transform="rotate(-72.18 299.383 142.773)"/><circle class="cls-1" cx="242.97" cy="124.28" r="7.44" transform="rotate(-72.18 242.977 124.271)"/><circle class="cls-1" cx="277.57" cy="140.78" r="3.64" transform="rotate(-72.19 277.548 140.784)"/><circle class="cls-5" cx="334.41" cy="73.2" r="4.06" transform="rotate(-72.18 334.393 73.202)"/><circle class="cls-5" cx="242.94" cy="116.53" r="4.05" transform="rotate(-72.18 242.924 116.533)"/><circle class="cls-5" cx="270.4" cy="146.49" r="4.05" transform="rotate(-72.18 270.38 146.494)"/><path class="cls-2" d="M291.84 147.55a7.12 7.12 0 1 1-4.6-9 7.12 7.12 0 0 1 4.6 9z"/><circle class="cls-5" cx="328.76" cy="115.96" r="4.93" transform="rotate(-72.18 328.74 115.96)"/><circle class="cls-2" cx="335.86" cy="102.01" r="7.59" transform="rotate(-72 337.103 101.8)"/><circle class="cls-4" cx="327.11" cy="71.15" r="4.97" transform="rotate(-72 328.343 70.818)"/><path class="cls-5" d="M261.82 55.19a5.88 5.88 0 1 1-3.8-7.4 5.88 5.88 0 0 1 3.8 7.4z"/><circle class="cls-1" cx="338.31" cy="143.67" r="5.87" transform="rotate(-72.18 338.297 143.671)"/><circle class="cls-1" cx="332.25" cy="121.53" r="5.58" transform="rotate(-72.18 332.25 121.533)"/><circle class="cls-5" cx="316.13" cy="52.74" r="7.82" transform="rotate(-72.18 316.113 52.744)"/><circle class="cls-2" cx="247.28" cy="60.56" r="6.34" transform="rotate(-72.17 247.29 60.56)"/><path class="cls-2" d="M330.69 129.94a7.29 7.29 0 1 1-4.71-9.17 7.29 7.29 0 0 1 4.71 9.17z"/><circle class="cls-4" cx="306.94" cy="143.73" r="4.44" transform="rotate(-72.18 306.94 143.733)"/><circle class="cls-4" cx="273.37" cy="47.02" r="4.2" transform="rotate(-72.19 273.348 47.025)"/><circle class="cls-1" cx="329.47" cy="109.6" r="4.2" transform="rotate(-72.19 329.46 109.603)"/><circle class="cls-4" cx="301.81" cy="45.83" r="6.91" transform="rotate(-72.17 301.815 45.822)"/><circle class="cls-3" cx="308.71" cy="52.06" r="5.04" transform="rotate(-72.18 308.71 52.064)"/><circle class="cls-3" cx="333.67" cy="86.85" r="5.04" transform="rotate(-72.18 333.649 86.86)"/><circle class="cls-3" cx="253.52" cy="130.66" r="5.04" transform="rotate(-72.17 253.535 130.66)"/><circle class="cls-3" cx="314.89" cy="130.76" r="4.29" transform="rotate(-72.18 314.886 130.756)"/><path class="cls-4" d="M294 141.25a3.43 3.43 0 1 1-2.22-4.32 3.43 3.43 0 0 1 2.22 4.32z"/><circle class="cls-4" cx="264.54" cy="145.51" r="2.74" transform="rotate(-72.18 264.54 145.514)"/><path class="cls-4" d="M244.4 82.65a2.74 2.74 0 1 1-1.77-3.45 2.74 2.74 0 0 1 1.77 3.45z"/><circle class="cls-2" cx="240.26" cy="108.4" r="3.29" transform="rotate(-72.18 240.251 108.398)"/><path class="cls-2" d="M335.21 67.18a3.29 3.29 0 1 1-2.13-4.18 3.29 3.29 0 0 1 2.13 4.18z"/><circle class="cls-5" cx="338.29" cy="84.47" r="3.29" transform="rotate(-72.18 338.282 84.482)"/><path class="cls-1" d="M241.63 85.48a3.29 3.29 0 1 1-2.12-4.14 3.29 3.29 0 0 1 2.12 4.14z"/><circle class="cls-3" cx="335.94" cy="112.93" r="6.47" transform="rotate(-72.19 335.916 112.935)"/><circle class="cls-2" cx="294.13" cy="48.31" r="3.39" transform="rotate(-72.18 294.136 48.31)"/><circle class="cls-2" cx="241.35" cy="75.25" r="4.1" transform="rotate(-72.18 241.336 75.251)"/><circle class="cls-3" cx="274.91" cy="147.21" r="4.02" transform="rotate(-72.17 274.919 147.211)"/><circle class="cls-2" cx="269.17" cy="139.28" r="4.02" transform="rotate(-72.17 269.173 139.284)"/><circle class="cls-4" cx="338.71" cy="95.97" r="4.02" transform="rotate(-72.17 338.73 95.962)"/><circle class="cls-4" cx="323.65" cy="119.4" r="2.87" transform="rotate(-72.17 323.656 119.4)"/><circle class="cls-4" cx="320.79" cy="135.83" r="3.25" transform="rotate(-72.2 320.797 135.833)"/><circle class="cls-4" cx="230.3" cy="95.97" r="3.25" transform="rotate(-72.2 230.288 95.975)"/><path class="cls-4" d="M240.78 115.28a4.83 4.83 0 1 1-3.12-6.07 4.82 4.82 0 0 1 3.12 6.07z"/><circle class="cls-5" cx="237.6" cy="94.12" r="4.82" transform="rotate(-72.19 237.6 94.128)"/><path class="cls-1" d="M318.73 140.64a5.33 5.33 0 1 1-3.44-6.7 5.32 5.32 0 0 1 3.44 6.7z"/><path class="cls-2" d="M338.93 133.57a3.23 3.23 0 1 1-2.09-4.06 3.22 3.22 0 0 1 2.09 4.06zm2.61-11.05a3.23 3.23 0 1 1-2.09-4.06 3.22 3.22 0 0 1 2.09 4.06z"/><circle class="cls-3" cx="252.86" cy="21.48" r="6.06" transform="rotate(-72.18 252.87 21.475)"/><circle class="cls-1" cx="219.39" cy="41.46" r="7.22" transform="rotate(-72.18 219.38 41.464)"/><path class="cls-2" d="M231.48 73.49a6.49 6.49 0 1 1-4.19-8.16 6.49 6.49 0 0 1 4.19 8.16zM244.26 39a5.72 5.72 0 1 1-3.7-7.2 5.72 5.72 0 0 1 3.7 7.2z"/><circle class="cls-2" cx="222.71" cy="5.72" r="5.72" transform="rotate(-72.18 222.72 5.715)"/><circle class="cls-4" cx="244.33" cy="54.28" r="7.04" transform="rotate(-72.18 244.331 54.283)"/><circle class="cls-1" cx="238.5" cy="68.16" r="5.04" transform="rotate(-72.18 238.493 68.157)"/><circle class="cls-2" cx="232.77" cy="86.64" r="5.72" transform="rotate(-72 233.664 86.535)"/><circle class="cls-1" cx="261.87" cy="40.35" r="6.29" transform="rotate(-72.17 261.857 40.357)"/><circle class="cls-3" cx="284.85" cy="41.46" r="6.81" transform="rotate(-72.18 284.871 41.451)"/><path class="cls-1" d="M4.66 38.91H68c6.52 0 9.79 3.73 9.79 10 0 3.26-.7 6.52-5.36 12.35l-58.92 71.31c-1.86 2.33-3.26 3.5-3.26 5.59 0 1.63 1.87 2.33 4.19 2.33h66.17v8.85H9.79c-6.53 0-9.79-3.73-9.79-10 0-3.26.7-6.52 5.36-12.35L64.3 55.68c1.86-2.33 3.26-3.5 3.26-5.59 0-1.63-1.86-2.33-4.19-2.33H4.66zM113.64 87l85.75.2a45.14 45.14 0 0 0-20.07-33.9c-23.32-15.81-52.93-7.47-67.71 14.31-14.61 21.6-10.26 51.62 12.49 67.05 22.17 15 51.88 9 66.39-11.53l7.71 5.23c-17.07 23.9-51.44 31.82-77.27 14.28C92.4 123.29 86 88.79 104.16 62c17.53-25.83 51.72-34.72 79.84-15.62a57.47 57.47 0 0 1 25.49 50h-95.44zm255.02 62.34V10.08h8.85v139.26z"/><path class="cls-6" d="M340.8 82.79a57 57 0 0 0-9.24-22.45 55.54 55.54 0 0 0-40.83-23.5 56.57 56.57 0 0 0-50.22 20.81 55.45 55.45 0 0 0-8.28 58.35c.42 1.08.88 2.14 1.35 3.18a55.33 55.33 0 0 0 45.78 32.21c16.56 1.94 33.52-3.73 46.38-16.59a53.07 53.07 0 0 0 6.75-8.25v22.77h9.34v-55.2a63.19 63.19 0 0 0-1.03-11.33z"/><circle class="cls-6" cx="285.06" cy="94.14" r="44.12"/><circle class="cls-1" cx="332.25" cy="94.12" r="4.08" transform="rotate(-72.18 332.237 94.13)"/><circle class="cls-1" cx="323.65" cy="62.17" r="6.63" transform="rotate(-72.19 323.639 62.18)"/><circle class="cls-2" cx="323.65" cy="55.53" r="4.05" transform="rotate(-72.18 323.63 55.545)"/></svg>