<svg xmlns="http://www.w3.org/2000/svg" viewBox="0 0 369.46 121.79"><defs><style>.cls-1{isolation:isolate}.cls-2{fill:#4989b5}.cls-2,.cls-3,.cls-4,.cls-5,.cls-6{mix-blend-mode:multiply}.cls-3{fill:#59a5cd}.cls-4{fill:#fae088}.cls-5{fill:#d53c1b}.cls-6{fill:#f3933b}</style></defs><title>circles-row</title><g class="cls-1"><g id="Layer_3" data-name="Layer 3"><path class="cls-2" d="M325.76 75.89a24.63 24.63 0 1 1-15.91-31 24.63 24.63 0 0 1 15.91 31z"/><path class="cls-3" d="M106.48 33.49a6.7 6.7 0 1 1-4.32-8.43 6.7 6.7 0 0 1 4.32 8.43z"/><path class="cls-2" d="M346.07 60.75a20.72 20.72 0 1 1-13.39-26.06 20.73 20.73 0 0 1 13.39 26.06z"/><path class="cls-4" d="M285.9 83.68a27.08 27.08 0 1 1-17.47-34.06 27 27 0 0 1 17.47 34.06z"/><path class="cls-2" d="M83.44 63.17a15.59 15.59 0 1 1-10.06-19.61 15.61 15.61 0 0 1 10.06 19.61z"/><path class="cls-5" d="M122.52 98.71a33.26 33.26 0 1 1-21.46-41.83 33.22 33.22 0 0 1 21.46 41.83z"/><path class="cls-4" d="M42.74 86.92a21.9 21.9 0 1 1-14.13-27.54 21.87 21.87 0 0 1 14.13 27.54z"/><circle class="cls-6" cx="270.94" cy="6.73" r="6.73" transform="rotate(-72.19 270.924 6.742)"/><path class="cls-5" d="M78.17 47.33a10.2 10.2 0 1 1-6.6-12.8 10.2 10.2 0 0 1 6.6 12.8z"/><path class="cls-3" d="M355.52 83.56a12.22 12.22 0 1 1-7.89-15.37 12.22 12.22 0 0 1 7.89 15.37z"/><path class="cls-2" d="M306.24 34a9.1 9.1 0 1 1-5.87-11.46A9.1 9.1 0 0 1 306.24 34z"/><path class="cls-4" d="M218.45 93.22a19 19 0 1 1-12.25-23.84 19 19 0 0 1 12.25 23.84z"/><path class="cls-6" d="M143.71 54.54a15 15 0 1 1-9.65-18.8 14.95 14.95 0 0 1 9.65 18.8z"/><path class="cls-5" d="M292 70.43a24.49 24.49 0 1 1-15.79-30.8A24.44 24.44 0 0 1 292 70.43z"/><path class="cls-3" d="M239.1 60.74a17.92 17.92 0 1 1-11.56-22.53 17.9 17.9 0 0 1 11.56 22.53z"/><path class="cls-4" d="M254.43 30.49a12 12 0 1 1-7.74-15.1 12 12 0 0 1 7.74 15.1z"/><path class="cls-5" d="M216.61 40.85A30.9 30.9 0 1 1 196.66 2a30.93 30.93 0 0 1 19.95 38.85z"/><path class="cls-4" d="M368.43 46.88a21.25 21.25 0 1 1-13.73-26.74 21.23 21.23 0 0 1 13.73 26.74z"/><path class="cls-6" d="M194.44 77.11a25.28 25.28 0 1 1-16.32-31.81 25.28 25.28 0 0 1 16.32 31.81z"/><path class="cls-2" d="M216.1 61.85a30.38 30.38 0 1 1-19.62-38.19 30.38 30.38 0 0 1 19.62 38.19z"/></g></g></svg>