<svg id="Layer_1" data-name="Layer 1" xmlns="http://www.w3.org/2000/svg" viewBox="0 0 136.09 138.17"><defs><style>.cls-1{fill:#fff}.cls-2{fill:none}</style></defs><title>icon-story</title><path class="cls-1" d="M130.36 45.63v-.88a5.28 5.28 0 0 0 0 .88zm5.64-.68v-1.16 1.16z"/><path class="cls-2" d="M64.21 43.41c-2.46-1-4.9-2.08-7.35-3.14l-14-6.07-15.77-6.82-16-6.89c-1.7-.73-3.41-1.45-5.43-2.3v86.76a1.5 1.5 0 0 0 1.09 1.69c2.89 1.14 5.72 2.42 8.56 3.66q11.26 4.9 22.53 9.8 11.55 5 23.11 10c1.3.56 2.62 1.07 4.15 1.69V45.13c.04-.81-.1-1.38-.89-1.72z"/><path class="cls-1" d="M136 52.23V17.77a5.52 5.52 0 0 0-4.78-5.2c-2-.35-3.75.56-5.49 1.31-4.75 2-9.47 4.13-14.21 6.18q-8 3.46-16 6.89l-14.25 6.16c-4.23 1.83-8.46 3.69-12.69 5.51a1.54 1.54 0 0 1-1.09.08c-3.57-1.56-7.1-3.21-10.67-4.75-7.52-3.25-15.06-6.45-22.57-9.7-8.58-3.7-17.13-7.46-25.71-11.15a5.89 5.89 0 0 0-6.14.55A5.82 5.82 0 0 0 0 18.73v87a5.78 5.78 0 0 0 3.36 5.71c2.8 1.33 5.69 2.47 8.54 3.69q8.11 3.48 16.23 7c5.19 2.23 10.36 4.49 15.55 6.73 6 2.56 11.94 5 17.85 7.69 3.53 1.59 7.1 2.35 10.77.87 4.68-1.88 9.28-4 13.92-6l16-6.87 14-6c4.86-2.08 9.7-4.21 14.58-6.24 3.77-1.57 5.28-3 5.25-7.6-.05-17.52-.05-35-.05-52.48zm-70.9 50.94v28.58c-1.54-.62-2.86-1.13-4.15-1.69q-11.56-5-23.11-10-11.27-4.88-22.53-9.8c-2.85-1.24-5.68-2.52-8.56-3.66a1.5 1.5 0 0 1-1.09-1.69V18.15c2 .86 3.73 1.57 5.43 2.3l16 6.89 15.77 6.86 14 6.07c2.44 1.06 4.88 2.13 7.35 3.14.83.34.93.91.93 1.69q-.02 29.04-.01 58.07zm64.48 3.35c-1.74.69-3.45 1.45-5.16 2.19l-17.4 7.53-14.12 6.11-15.87 6.86-6 2.57c0-.52-.1-.87-.1-1.21V44.9a1.36 1.36 0 0 1 .91-1.47c2.45-1 4.9-2.1 7.34-3.15l15.65-6.77 15.88-6.87 14.24-6.13 5.41-2.29v26.53a5.28 5.28 0 0 0 0 .88v59.3c.02.69.04 1.28-.75 1.6z"/><path class="cls-1" d="M19.23 11q8.48 3.81 17 7.59c9.7 4.32 19.41 8.6 29.09 12.95 1.7.76 3.18 1.16 5 .15 2.53-1.39 5.27-2.42 7.92-3.59L94 21.2l15.61-6.85c2.47-1.09 5-2.13 7.39-3.33a2.7 2.7 0 0 0 1.17-3.69 3 3 0 0 0-3.87-1.38q-8.89 3.92-17.78 7.85L71.33 25c-1.9.85-3.52 1.52-5.85.38-7.18-3.5-14.58-6.55-21.88-9.8S29.17 9.1 21.95 5.87c-2.25-1-4.37.21-4.38 2.59A2.52 2.52 0 0 0 19.23 11z"/><path class="cls-1" d="M33.48 5.63c1.58.74 3.18 1.44 4.78 2.15Q52 13.88 65.72 20c1.24.55 2.33 1 3.88.26 5.55-2.65 11.24-5 16.87-7.53q7.91-3.49 15.82-7a2.93 2.93 0 0 0 1.89-2.77c.16-1.66-2.18-3.54-3.75-2.79-4.29 2-8.64 3.85-13 5.79C81.3 8.72 75.15 11.52 69 14.23a2.91 2.91 0 0 1-2-.06c-1.91-.77-3.76-1.71-5.64-2.55L35.88.38A2.87 2.87 0 0 0 32 1.68a3 3 0 0 0 1.48 3.95z"/></svg>