<svg id="Layer_1" data-name="Layer 1" xmlns="http://www.w3.org/2000/svg" viewBox="0 0 38.42 38.33"><defs><style>.cls-1,.cls-2{fill:#fff}.cls-2{fill-rule:evenodd}</style></defs><title>icon-culture</title><path class="cls-1" d="M7.87 33.48a5.27 5.27 0 0 0-2-3.92C4.65 28.4 3.43 27.25 2.34 26a3.92 3.92 0 0 1-1-2.17c-.11-3.07 0-6.14-.05-9.21 0-.85.33-1.44 1.23-1.41s1.11.63 1.11 1.41v3.72c0 .28.38.54.59.81.22-.26.6-.51.62-.78a34.65 34.65 0 0 0 0-3.83 2.28 2.28 0 0 0-1.7-2.33C1.39 11.73.05 12.8 0 14.75c0 2.68.05 5.36 0 8a5.7 5.7 0 0 0 1.87 4.47C3.26 28.61 4.65 30 6 31.41c.91 1 .81 1.54-.1 2.52a1.48 1.48 0 0 0-.33.87 28.37 28.37 0 0 0 0 2.88c0 .23.33.43.5.65.19-.24.51-.47.54-.73.08-.67 0-1.37.07-2 0-.29.43-.74.67-.75 2.3-.06 4.61 0 7.1 0v2.86c0 .24.4.46.61.68.22-.22.62-.43.64-.67a22.39 22.39 0 0 0 0-2.87c0-.29-.18-.73-.39-.83-1-.44-.9-1.29-.89-2.13a14.49 14.49 0 0 0-.07-3 6.07 6.07 0 0 0-1.18-2.79c-1.84-2-3.86-3.89-5.83-5.79a2.28 2.28 0 0 0-2.93.22 2 2 0 0 0-.26 3c1.3 1.27 2.67 2.48 4.09 3.79.54-.29.73-.73 0-1.4C7.25 25 6.37 24 5.4 23.12a1.12 1.12 0 0 1-.18-1.76c.56-.66 1.12-.5 1.7.11 1.7 1.78 3.51 3.45 5.15 5.28a4.66 4.66 0 0 1 1.05 2.33 20.88 20.88 0 0 1 0 3.71c0 .24-.3.66-.47.66-1.53.05-3.12.03-4.78.03zM33.77 19l.35.24c.23-.29.63-.58.66-.88.08-1.11 0-2.24 0-3.36 0-.92.16-1.81 1.27-1.78s1.28.86 1.27 1.81c0 2.56-.09 5.12 0 7.67a4.71 4.71 0 0 1-1.58 3.81A32.93 32.93 0 0 0 33.25 29a14 14 0 0 0-2.36 3.45c-.37.92-.68 1.33-1.64 1.17a7.91 7.91 0 0 0-1.07-.09c-3-.07-2.94-.07-3-3.09a4.94 4.94 0 0 1 1.17-3.66c1.71-1.78 3.48-3.5 5.18-5.29.59-.62 1.08-.76 1.71-.13s.55 1.12-.1 1.71c-1.2 1.09-2.33 2.26-3.46 3.38.64 1 .71 1.09 1.18.62 1.17-1.17 2.34-2.35 3.48-3.56a2.24 2.24 0 0 0-.17-2.85c-.74-.84-2.19-1.15-2.9-.47-2.12 2-4.21 4.07-6.22 6.21-1.31 1.42-1.05 3.32-1.05 5.11 0 .91.35 2-.87 2.49-.14.06-.21.43-.22.65v3c0 .23.3.45.47.67.21-.22.57-.42.6-.67.12-.86.14-1.74.21-2.87h7c.25 0 .63.44.69.73.11.58 0 1.2.07 1.79a3.32 3.32 0 0 0 .53 1c.19-.31.51-.6.55-.93A12 12 0 0 0 33 35a1.56 1.56 0 0 0-.52-1.1c-.91-.51-.79-1.2-.35-1.81a21.27 21.27 0 0 1 2.15-2.52c4.71-4.81 4.07-3.29 4.11-9.82v-5.4a2.24 2.24 0 0 0-2.26-2.28 2.16 2.16 0 0 0-2.33 1.79c-.09 1.7-.03 3.42-.03 5.14zm-1.27-6.06c-.2-1.15-.3-2.26-.59-3.32a13.14 13.14 0 0 0-25.73 2.31c0 .38.17 1.07.39 1.13.79.21.53-.53.65-.93a33.41 33.41 0 0 1 1.34-4.31C11.48 1.37 20.3-.89 26 3.25a12.11 12.11 0 0 1 5.22 9c.1.66.25 1.05 1.28.69z"/><path class="cls-2" d="M7.87 33.48h4.83c.17 0 .46-.43.47-.66a20.88 20.88 0 0 0 0-3.71 4.66 4.66 0 0 0-1.05-2.33c-1.65-1.82-3.45-3.5-5.15-5.28-.59-.61-1.14-.77-1.7-.11a1.12 1.12 0 0 0 .18 1.76c1 .87 1.85 1.84 2.81 2.72.75.67.57 1.11 0 1.4-1.42-1.31-2.79-2.52-4.09-3.79a2 2 0 0 1 .26-3 2.28 2.28 0 0 1 2.93-.22c2 1.9 4 3.76 5.83 5.79a6.07 6.07 0 0 1 1.18 2.79 14.49 14.49 0 0 1 .07 3c0 .84-.12 1.69.89 2.13.22.09.38.54.39.83a22.39 22.39 0 0 1 0 2.87c0 .24-.42.44-.64.67-.21-.23-.59-.44-.61-.68-.08-.86 0-1.74 0-2.86h-7.1c-.24 0-.62.46-.67.75-.1.66 0 1.36-.07 2 0 .26-.35.49-.54.73-.17-.22-.49-.42-.5-.65a28.37 28.37 0 0 1 0-2.87 1.48 1.48 0 0 1 .33-.87c.91-1 1-1.54.1-2.52a538.01 538.01 0 0 0-4.15-4.12A5.7 5.7 0 0 1 0 22.78c.08-2.68 0-5.36 0-8 0-1.95 1.36-3 3.13-2.56a2.28 2.28 0 0 1 1.7 2.33 34.65 34.65 0 0 1 0 3.83c0 .27-.4.52-.62.78-.21-.27-.57-.53-.59-.81-.07-1.24 0-2.48 0-3.72 0-.78-.27-1.38-1.11-1.41s-1.23.56-1.23 1.41c0 3.07-.06 6.14.05 9.21a3.92 3.92 0 0 0 1 2.17c1.08 1.26 2.31 2.41 3.51 3.57a5.27 5.27 0 0 1 2.03 3.9zM33.77 19c0-1.71-.06-3.42 0-5.13a2.16 2.16 0 0 1 2.33-1.79 2.24 2.24 0 0 1 2.26 2.28c.06 1.8 0 3.6 0 5.4 0 6.53.59 5-4.11 9.82a21.27 21.27 0 0 0-2.15 2.52c-.44.61-.57 1.3.35 1.81A1.56 1.56 0 0 1 33 35a12 12 0 0 1 0 2.39c0 .33-.36.62-.55.93a3.32 3.32 0 0 1-.53-1c-.09-.59 0-1.21-.07-1.79-.06-.29-.44-.73-.69-.73-2.31-.06-4.62 0-7 0-.07 1.14-.09 2-.21 2.87 0 .25-.39.45-.6.67-.16-.22-.46-.44-.47-.67-.05-1 0-2 0-3 0-.23.07-.59.22-.65 1.21-.53.85-1.58.87-2.49 0-1.79-.25-3.69 1.1-5.13 2-2.13 4.1-4.18 6.22-6.21.71-.68 2.16-.36 2.9.47a2.24 2.24 0 0 1 .17 2.85c-1.14 1.21-2.31 2.38-3.48 3.56-.47.47-.54.43-1.18-.62 1.17-1.14 2.3-2.31 3.49-3.45.65-.59.71-1.1.1-1.71s-1.12-.49-1.71.13c-1.7 1.79-3.48 3.5-5.18 5.29a4.94 4.94 0 0 0-1.17 3.66c0 3 0 3 3 3.09a7.91 7.91 0 0 1 1.07.09c1 .15 1.26-.25 1.64-1.17A14 14 0 0 1 33.25 29a32.93 32.93 0 0 1 2.54-2.48 4.71 4.71 0 0 0 1.58-3.81c-.11-2.55 0-5.12 0-7.67 0-.95-.22-1.78-1.27-1.81s-1.28.86-1.27 1.78c0 1.12.05 2.24 0 3.36 0 .31-.43.59-.66.88zM16.3 13.78c-.2-1.66-.47-3-.51-4.44a2.36 2.36 0 0 1 2-2.55 5.77 5.77 0 0 1 1.29-.22c2.66-.1 4.2 1.66 3.7 4.28-.17.89-.52 1.75-.83 2.78l2.76 1.57c1.1.62 1.41 1.45 1.09 2.92a2.1 2.1 0 0 1-2.26 1.72h-8.62c-1.33 0-1.9-.5-2.24-1.85a2.19 2.19 0 0 1 1.1-2.82zm2.94 4.83h3.94c.66 0 1.18-.09 1.33-.86s.12-1.24-.62-1.61-1.71-1.37-2.58-1.38h-4.12c-.91 0-1.93.87-2.75 1.54a1.85 1.85 0 0 0-.4 1.54c.06.32.71.71 1.12.73 1.37.1 2.73.04 4.08.04zm0-10.79c-2 0-2.55.62-2.42 2.59a6.55 6.55 0 0 0 .31 1.39c.3 1 .78 1.83 2 1.94s1.78-.77 2.21-1.67c1.1-2.34.15-4.24-2.08-4.24z"/><path class="cls-2" d="M32.5 12.94c-1 .37-1.18 0-1.25-.72a12.11 12.11 0 0 0-5.22-9C20.3-.89 11.48 1.37 8.56 7.82a33.41 33.41 0 0 0-1.34 4.31c-.12.4.14 1.14-.65.93-.22-.06-.43-.75-.39-1.13a13.14 13.14 0 0 1 25.73-2.31c.29 1.06.39 2.17.59 3.32z"/></svg>