<svg id="Layer_1" data-name="Layer 1" xmlns="http://www.w3.org/2000/svg" viewBox="0 0 110.03 110.04"><defs><style>.cls-1{fill:#5aa5cd;opacity:.6}</style></defs><title>icon-twitter</title><path class="cls-1" d="M55 0a55 55 0 1 0 55 55A55 55 0 0 0 55 0zm30.08 39.61v2c0 20.49-15.6 44.12-44.12 44.12a43.94 43.94 0 0 1-23.78-7 32.19 32.19 0 0 0 3.7.22 31.16 31.16 0 0 0 19.26-6.64 15.54 15.54 0 0 1-14.45-10.74 16 16 0 0 0 2.92.28 15.27 15.27 0 0 0 4.09-.55 15.49 15.49 0 0 1-12.44-15.2 1.77 1.77 0 0 1 0-.2 15.43 15.43 0 0 0 7 2 15.53 15.53 0 0 1-4.8-20.71 44 44 0 0 0 32 16.2 15.35 15.35 0 0 1-.4-3.53A15.52 15.52 0 0 1 80.88 29.2a31.27 31.27 0 0 0 9.84-3.77A15.56 15.56 0 0 1 83.91 34a30.38 30.38 0 0 0 8.9-2.45 31.5 31.5 0 0 1-7.73 8.06z"/></svg>