<svg id="Layer_1" data-name="Layer 1" xmlns="http://www.w3.org/2000/svg" viewBox="0 0 102.68 109.07"><defs><style>.cls-1{fill:#1a1a1a}</style></defs><title>icon-family</title><path class="cls-1" d="M88.74 109.07H63.25a2.5 2.5 0 0 1-2.5-2.5V79.19H42.19v27.38a2.5 2.5 0 0 1-2.5 2.5H14.2a2.5 2.5 0 0 1-2.5-2.5V53.49a2.5 2.5 0 0 1 .71-1.75l37.38-38.31a2.5 2.5 0 0 1 1.79-.75 2.5 2.5 0 0 1 1.79.76l37.17 38.31a2.5 2.5 0 0 1 .71 1.74v53.08a2.5 2.5 0 0 1-2.51 2.5zm-23-5h20.5V54.51L51.57 18.76 16.7 54.51v49.56h20.49V76.69a2.5 2.5 0 0 1 2.5-2.5h23.56a2.5 2.5 0 0 1 2.5 2.5z"/><path class="cls-1" d="M2.5 55.75a2.5 2.5 0 0 1-1.8-4.23L49.59.77a2.5 2.5 0 0 1 1.8-.77 2.5 2.5 0 0 1 1.79.75L102 50.65a2.5 2.5 0 1 1-3.58 3.5l-47-48.06L4.3 55a2.49 2.49 0 0 1-1.8.75z"/><path class="cls-1" d="M22 35.51A2.5 2.5 0 0 1 19.5 33V10a2.5 2.5 0 0 1 5 0v23a2.5 2.5 0 0 1-2.5 2.51z"/></svg>