<svg id="Layer_1" data-name="Layer 1" xmlns="http://www.w3.org/2000/svg" viewBox="0 0 36.5 38.25"><defs><style>.cls-1{fill:none;stroke:#fff;stroke-linecap:round;stroke-miterlimit:10}.cls-2{fill:#fff}</style></defs><title>icon-join-in</title><circle class="cls-1" cx="7.13" cy="3" r="2.5"/><circle class="cls-1" cx="18.05" cy="3" r="2.5"/><circle class="cls-1" cx="28.65" cy="3" r="2.5"/><circle class="cls-2" cx="7.13" cy="10.4" r=".47"/><circle class="cls-2" cx="18.25" cy="10.4" r=".47"/><circle class="cls-2" cx="18.25" cy="12.25" r=".47"/><circle class="cls-2" cx="28.65" cy="10.4" r=".47"/><path class="cls-1" d="M32.48 13.13v10.09a.28.28 0 0 0 .28.28h2.56a.28.28 0 0 0 .28-.28V8.16a.28.28 0 0 0-.28-.28H.78a.28.28 0 0 0-.28.28v15.06a.28.28 0 0 0 .28.28h2.56a.28.28 0 0 0 .28-.28V13.13"/><path class="cls-1" d="M12.75 10.88h-1.09a.28.28 0 0 0-.28.28v11.06a.28.28 0 0 1-.28.28H3.63m20-11.62h1.09a.28.28 0 0 1 .28.28v11.06a.28.28 0 0 0 .28.28h7.47M9.63 19.75h-6m19.05 0h-8.93m19.08 0h-6"/><path class="cls-1" d="M25.05 13.25H23a.28.28 0 0 0-.28.28v8.68a.28.28 0 0 1-.28.28H14a.28.28 0 0 1-.28-.28v-8.68a.28.28 0 0 0-.28-.28h-2.06M.5 37.75H36m-25.37 0V22.5m4.08 15.25V22.5m7 15.25V22.5m3.34 15.25V22.5m3.6 15.25V24.5m-10.6 13.25V24.5M7.13 37.75V24.5m-3.5 13.25V25.62m29.12 12.13V25.62"/></svg>