<svg id="Logo_Colour_1" data-name="Logo Colour 1" xmlns="http://www.w3.org/2000/svg" viewBox="0 0 377.51 201.87"><defs><style>.cls-1{fill:#4b89b5;}.cls-2{fill:#fadf87;}.cls-3{fill:#f2913a;}.cls-4{fill:#d53b1b;}.cls-5{fill:#58a4cc;}.cls-6{fill:none;}</style></defs><title>brand</title><path class="cls-1" d="M15,172.59a15.34,15.34,0,0,1,9.33,3.18,1,1,0,0,1,.16,1.44,1,1,0,0,1-1.41.21,13.16,13.16,0,0,0-8.08-2.8,12.63,12.63,0,1,0,0,25.24,12.28,12.28,0,0,0,8-2.8,1,1,0,0,1,1.44.25,1,1,0,0,1-.12,1.45A15.33,15.33,0,0,1,15,201.87a14.65,14.65,0,1,1,0-29.28Z"/><path class="cls-1" d="M91.18,188.43H76.33v12.45a1,1,0,0,1-2,0V174a1,1,0,0,1,2,0v12.45H91.18V174a1,1,0,0,1,1-1,1,1,0,0,1,1,1v26.89a1,1,0,0,1-1,1,1,1,0,0,1-1-1Z"/><path class="cls-1" d="M144.83,174a1,1,0,0,1,2,0V190.2a9.65,9.65,0,0,0,19.31,0V174a1,1,0,0,1,2,0V190.2a11.67,11.67,0,0,1-23.34,0Z"/><path class="cls-1" d="M232.92,195.36a5.21,5.21,0,0,0-2.35-4.37,9.13,9.13,0,0,0-3.34-1.44,1.55,1.55,0,0,0-.21-.08h-7v11.42a1,1,0,0,1-1,1,1,1,0,0,1-1-1V174a1,1,0,0,1,.91-1h8.25a8.25,8.25,0,0,1,3.46,15.71,4.35,4.35,0,0,0,.41.21,7.3,7.3,0,0,1,3.87,6.43,11.18,11.18,0,0,0,.37,3.34,1.43,1.43,0,0,0,.41.7,1.08,1.08,0,0,1,1.11.67,1.11,1.11,0,0,1-.66,1.31,4,4,0,0,1-.5,0h-.07a2.3,2.3,0,0,1-1.86-1.32A10.2,10.2,0,0,1,232.92,195.36ZM227.15,175H220v12.45h7.29a6.23,6.23,0,0,0-.16-12.45Z"/><path class="cls-1" d="M299.32,172.59a15.34,15.34,0,0,1,9.33,3.18,1,1,0,0,1,.16,1.44,1,1,0,0,1-1.4.21,13.17,13.17,0,0,0-8.08-2.8,12.63,12.63,0,1,0,0,25.24,12.27,12.27,0,0,0,8-2.8,1,1,0,0,1,1.44.25,1,1,0,0,1-.12,1.45,15.33,15.33,0,0,1-9.33,3.13,14.65,14.65,0,1,1,0-29.28Z"/><path class="cls-1" d="M375.49,188.43H360.64v12.45a1,1,0,0,1-1,1,1,1,0,0,1-1-1V174a1,1,0,0,1,1-1,1,1,0,0,1,1,1v12.45h14.85V174a1,1,0,0,1,2,0v26.89a1,1,0,0,1-1,1,1,1,0,0,1-1-1Z"/><circle class="cls-2" cx="251.14" cy="134.17" r="6.04" transform="translate(46.56 332.2) rotate(-72.18)"/><circle class="cls-3" cx="234.8" cy="102.97" r="7" transform="translate(64.87 294.96) rotate(-72.17)"/><circle class="cls-2" cx="332.25" cy="78.44" r="6.04" transform="translate(155.86 370.72) rotate(-72.17)"/><circle class="cls-2" cx="308.72" cy="135.83" r="4.94" transform="translate(84.87 388.12) rotate(-72.17)"/><circle class="cls-1" cx="260.74" cy="137.29" r="6.63" transform="translate(50.27 343.53) rotate(-72.19)"/><circle class="cls-3" cx="337.39" cy="127.11" r="5.17" transform="translate(113.04 409.35) rotate(-72.16)"/><path class="cls-4" d="M343.39,137.83a5.56,5.56,0,1,1-3.59-7A5.56,5.56,0,0,1,343.39,137.83Z"/><circle class="cls-3" cx="299.36" cy="142.78" r="7.58" transform="translate(71.84 384.1) rotate(-72.18)"/><circle class="cls-1" cx="242.97" cy="124.28" r="7.44" transform="translate(50.31 317.56) rotate(-72.18)"/><circle class="cls-1" cx="277.57" cy="140.78" r="3.64" transform="translate(58.62 361.97) rotate(-72.19)"/><circle class="cls-5" cx="334.41" cy="73.2" r="4.06" transform="translate(162.37 369.15) rotate(-72.18)"/><circle class="cls-5" cx="242.94" cy="116.53" r="4.05" transform="translate(57.64 312.14) rotate(-72.18)"/><circle class="cls-5" cx="270.4" cy="146.49" r="4.05" transform="translate(48.17 359.07) rotate(-72.18)"/><path class="cls-2" d="M291.84,147.55a7.12,7.12,0,1,1-4.6-9A7.12,7.12,0,0,1,291.84,147.55Z"/><circle class="cls-5" cx="328.76" cy="115.96" r="4.93" transform="translate(117.74 393.44) rotate(-72.18)"/><circle class="cls-2" cx="335.86" cy="102.01" r="7.59" transform="matrix(0.31, -0.95, 0.95, 0.31, 135.89, 390.49)"/><circle class="cls-4" cx="327.11" cy="71.15" r="4.97" transform="matrix(0.31, -0.95, 0.95, 0.31, 159.28, 360.79)"/><path class="cls-5" d="M261.82,55.19a5.88,5.88,0,1,1-3.8-7.4A5.88,5.88,0,0,1,261.82,55.19Z"/><circle class="cls-1" cx="338.31" cy="143.67" r="5.87" transform="translate(97.99 421.77) rotate(-72.18)"/><circle class="cls-1" cx="332.25" cy="121.53" r="5.58" transform="translate(114.87 400.65) rotate(-72.18)"/><circle class="cls-5" cx="316.13" cy="52.74" r="7.82" transform="translate(169.16 337.55) rotate(-72.18)"/><circle class="cls-2" cx="247.28" cy="60.56" r="6.34" transform="translate(113.92 277.43) rotate(-72.17)"/><path class="cls-2" d="M330.69,129.94a7.29,7.29,0,1,1-4.71-9.17A7.29,7.29,0,0,1,330.69,129.94Z"/><circle class="cls-4" cx="306.94" cy="143.73" r="4.44" transform="translate(76.17 391.96) rotate(-72.18)"/><circle class="cls-4" cx="273.37" cy="47.02" r="4.2" transform="translate(144.97 292.89) rotate(-72.19)"/><circle class="cls-1" cx="329.47" cy="109.6" r="4.2" transform="translate(124.34 389.75) rotate(-72.19)"/><circle class="cls-4" cx="301.81" cy="45.83" r="6.91" transform="translate(165.78 319.11) rotate(-72.17)"/><circle class="cls-3" cx="308.71" cy="52.06" r="5.04" transform="translate(164.67 330.03) rotate(-72.18)"/><circle class="cls-3" cx="333.67" cy="86.85" r="5.04" transform="translate(148.85 377.92) rotate(-72.18)"/><circle class="cls-3" cx="253.52" cy="130.66" r="5.04" transform="translate(51.52 332.01) rotate(-72.17)"/><circle class="cls-3" cx="314.89" cy="130.76" r="4.29" transform="translate(94.04 390.52) rotate(-72.18)"/><path class="cls-4" d="M294,141.25a3.43,3.43,0,1,1-2.22-4.32A3.43,3.43,0,0,1,294,141.25Z"/><circle class="cls-4" cx="264.54" cy="145.51" r="2.74" transform="translate(45.05 352.83) rotate(-72.18)"/><path class="cls-4" d="M244.4,82.65a2.74,2.74,0,1,1-1.77-3.45A2.74,2.74,0,0,1,244.4,82.65Z"/><circle class="cls-2" cx="240.26" cy="108.4" r="3.29" transform="translate(63.53 303.95) rotate(-72.18)"/><path class="cls-2" d="M335.21,67.18A3.29,3.29,0,1,1,333.08,63,3.29,3.29,0,0,1,335.21,67.18Z"/><circle class="cls-5" cx="338.29" cy="84.47" r="3.29" transform="translate(154.33 380.68) rotate(-72.18)"/><path class="cls-1" d="M241.63,85.48a3.29,3.29,0,1,1-2.12-4.14A3.29,3.29,0,0,1,241.63,85.48Z"/><circle class="cls-3" cx="335.94" cy="112.93" r="6.47" transform="translate(125.65 398.21) rotate(-72.19)"/><circle class="cls-2" cx="294.13" cy="48.31" r="3.39" transform="translate(158.13 313.55) rotate(-72.18)"/><circle class="cls-2" cx="241.35" cy="75.25" r="4.1" transform="translate(95.84 281.98) rotate(-72.18)"/><circle class="cls-3" cx="274.91" cy="147.21" r="4.02" transform="translate(50.6 363.85) rotate(-72.17)"/><circle class="cls-2" cx="269.17" cy="139.28" r="4.02" transform="translate(54.16 352.88) rotate(-72.17)"/><circle class="cls-4" cx="338.71" cy="95.97" r="4.02" transform="translate(143.66 389.04) rotate(-72.17)"/><circle class="cls-4" cx="323.65" cy="119.4" r="2.87" transform="translate(110.89 390.95) rotate(-72.17)"/><circle class="cls-4" cx="320.79" cy="135.83" r="3.25" transform="translate(93.4 399.75) rotate(-72.2)"/><circle class="cls-4" cx="230.3" cy="95.97" r="3.25" transform="translate(68.51 285.9) rotate(-72.2)"/><path class="cls-4" d="M240.78,115.28a4.83,4.83,0,1,1-3.12-6.07A4.82,4.82,0,0,1,240.78,115.28Z"/><circle class="cls-5" cx="237.6" cy="94.12" r="4.82" transform="translate(75.31 291.55) rotate(-72.19)"/><path class="cls-1" d="M318.73,140.64a5.33,5.33,0,1,1-3.44-6.7A5.32,5.32,0,0,1,318.73,140.64Z"/><path class="cls-2" d="M338.93,133.57a3.23,3.23,0,1,1-2.09-4.06A3.22,3.22,0,0,1,338.93,133.57Z"/><path class="cls-2" d="M341.54,122.52a3.23,3.23,0,1,1-2.09-4.06A3.22,3.22,0,0,1,341.54,122.52Z"/><circle class="cls-3" cx="252.86" cy="21.48" r="6.06" transform="translate(155.04 255.64) rotate(-72.18)"/><circle class="cls-1" cx="219.39" cy="41.46" r="7.22" transform="translate(112.77 237.63) rotate(-72.18)"/><path class="cls-2" d="M231.48,73.49a6.49,6.49,0,1,1-4.19-8.16A6.49,6.49,0,0,1,231.48,73.49Z"/><path class="cls-2" d="M244.26,39a5.72,5.72,0,1,1-3.7-7.2A5.72,5.72,0,0,1,244.26,39Z"/><circle class="cls-2" cx="222.71" cy="5.72" r="5.72" transform="translate(149.12 216) rotate(-72.18)"/><circle class="cls-4" cx="244.33" cy="54.28" r="7.04" transform="translate(117.88 270.28) rotate(-72.18)"/><circle class="cls-1" cx="238.5" cy="68.16" r="5.04" transform="translate(100.62 274.35) rotate(-72.18)"/><circle class="cls-2" cx="232.77" cy="86.64" r="5.72" transform="matrix(0.31, -0.95, 0.95, 0.31, 79.02, 281.69)"/><circle class="cls-1" cx="261.87" cy="40.35" r="6.29" transform="translate(143.26 277.28) rotate(-72.17)"/><circle class="cls-3" cx="284.85" cy="41.46" r="6.81" transform="translate(158.23 299.97) rotate(-72.18)"/><path class="cls-1" d="M4.66,38.91H68c6.52,0,9.79,3.73,9.79,10,0,3.26-.7,6.52-5.36,12.35L13.51,132.57c-1.86,2.33-3.26,3.5-3.26,5.59,0,1.63,1.87,2.33,4.19,2.33H80.61v8.85H9.79c-6.53,0-9.79-3.73-9.79-10,0-3.26.7-6.52,5.36-12.35L64.3,55.68c1.86-2.33,3.26-3.5,3.26-5.59,0-1.63-1.86-2.33-4.19-2.33H4.66Z"/><path class="cls-1" d="M113.64,87l85.75.2a45.14,45.14,0,0,0-20.07-33.9C156,37.49,126.39,45.83,111.61,67.61,97,89.21,101.35,119.23,124.1,134.66c22.17,15,51.88,9,66.39-11.53l7.71,5.23c-17.07,23.9-51.44,31.82-77.27,14.28C92.4,123.29,86,88.79,104.16,62,121.69,36.17,155.88,27.28,184,46.38a57.47,57.47,0,0,1,25.49,50l-95.44,0Z"/><path class="cls-1" d="M368.66,149.34V10.08h8.85V149.34Z"/><path class="cls-6" d="M340.8,82.79a57,57,0,0,0-9.24-22.45,55.54,55.54,0,0,0-40.83-23.5,56.57,56.57,0,0,0-50.22,20.81A55.45,55.45,0,0,0,232.23,116c.42,1.08.88,2.14,1.35,3.18a55.33,55.33,0,0,0,45.78,32.21c16.56,1.94,33.52-3.73,46.38-16.59a53.07,53.07,0,0,0,6.75-8.25v22.77h9.34V94.12A63.19,63.19,0,0,0,340.8,82.79Z"/><circle class="cls-6" cx="285.06" cy="94.14" r="44.12"/><circle class="cls-1" cx="332.25" cy="94.12" r="4.08" transform="translate(140.95 381.62) rotate(-72.18)"/><circle class="cls-1" cx="323.65" cy="62.17" r="6.63" transform="translate(165.45 351.29) rotate(-72.19)"/><circle class="cls-2" cx="323.65" cy="55.53" r="4.05" transform="translate(171.71 346.65) rotate(-72.18)"/></svg>