<svg id="Layer_1" data-name="Layer 1" xmlns="http://www.w3.org/2000/svg" viewBox="0 0 36.5 38.25"><defs><style>.cls-1{fill:none;stroke:#fff;stroke-linecap:round;stroke-miterlimit:10;}.cls-2{fill:#fff;}</style></defs><title>icon-join-in</title><circle class="cls-1" cx="7.13" cy="3" r="2.5"/><circle class="cls-1" cx="18.05" cy="3" r="2.5"/><circle class="cls-1" cx="28.65" cy="3" r="2.5"/><circle class="cls-2" cx="7.13" cy="10.4" r="0.47"/><circle class="cls-2" cx="18.25" cy="10.4" r="0.47"/><circle class="cls-2" cx="18.25" cy="12.25" r="0.47"/><circle class="cls-2" cx="28.65" cy="10.4" r="0.47"/><path class="cls-1" d="M32.48,13.13V23.22a.28.28,0,0,0,.28.28h2.56a.28.28,0,0,0,.28-.28V8.16a.28.28,0,0,0-.28-.28H.78a.28.28,0,0,0-.28.28V23.22a.28.28,0,0,0,.28.28H3.34a.28.28,0,0,0,.28-.28V13.13"/><path class="cls-1" d="M12.75,10.88H11.66a.28.28,0,0,0-.28.28V22.22a.28.28,0,0,1-.28.28H3.63"/><path class="cls-1" d="M23.63,10.88h1.09a.28.28,0,0,1,.28.28V22.22a.28.28,0,0,0,.28.28h7.47"/><line class="cls-1" x1="9.63" y1="19.75" x2="3.63" y2="19.75"/><line class="cls-1" x1="22.68" y1="19.75" x2="13.75" y2="19.75"/><line class="cls-1" x1="32.83" y1="19.75" x2="26.83" y2="19.75"/><path class="cls-1" d="M25.05,13.25H23a.28.28,0,0,0-.28.28v8.68a.28.28,0,0,1-.28.28H14a.28.28,0,0,1-.28-.28V13.53a.28.28,0,0,0-.28-.28H11.38"/><line class="cls-1" x1="0.5" y1="37.75" x2="36" y2="37.75"/><line class="cls-1" x1="10.63" y1="37.75" x2="10.63" y2="22.5"/><line class="cls-1" x1="14.71" y1="37.75" x2="14.71" y2="22.5"/><line class="cls-1" x1="21.71" y1="37.75" x2="21.71" y2="22.5"/><line class="cls-1" x1="25.05" y1="37.75" x2="25.05" y2="22.5"/><line class="cls-1" x1="28.65" y1="37.75" x2="28.65" y2="24.5"/><line class="cls-1" x1="18.05" y1="37.75" x2="18.05" y2="24.5"/><line class="cls-1" x1="7.13" y1="37.75" x2="7.13" y2="24.5"/><line class="cls-1" x1="3.63" y1="37.75" x2="3.63" y2="25.62"/><line class="cls-1" x1="32.75" y1="37.75" x2="32.75" y2="25.62"/></svg>