<svg id="Layer_1" data-name="Layer 1" xmlns="http://www.w3.org/2000/svg" viewBox="0 0 115.83 103.86"><defs><style>.cls-1{fill:#1a1a1a;}</style></defs><title>icon-love</title><path class="cls-1" d="M57.92,103.86h0a2.5,2.5,0,0,1-1.78-.75L14.57,60.93C5.18,51.54,0,40.35,0,29.44,0,11.83,11.7,0,29.12,0c15,0,20.9,6.65,28.8,15.93C65.81,6.65,71.74,0,86.71,0c17.42,0,29.12,11.83,29.12,29.44,0,10.91-5.18,22.09-14.58,31.5L59.7,103.11A2.5,2.5,0,0,1,57.92,103.86ZM29.12,5C14.47,5,5,14.59,5,29.44c0,9.57,4.66,19.5,13.12,28L57.92,97.8,97.7,57.42c8.47-8.47,13.13-18.41,13.13-28C110.83,14.59,101.37,5,86.71,5,73.78,5,69.07,10.53,61.28,19.69l-1.47,1.72a2.5,2.5,0,0,1-1.9.88h0a2.5,2.5,0,0,1-1.9-.87L54.56,19.7C46.76,10.53,42.06,5,29.12,5Z"/></svg>