<svg id="Layer_1" data-name="Layer 1" xmlns="http://www.w3.org/2000/svg" viewBox="0 0 94.17 116.67"><defs><style>.cls-1{fill:#1a1a1a;}</style></defs><title>icon-passion</title><path class="cls-1" d="M44,116.67V94.06A47.07,47.07,0,1,1,78.71,82ZM47.09,5a42.08,42.08,0,0,0-.54,84.16l2.47,0v15.4L75.31,78.31A42.09,42.09,0,0,0,47.09,5Z"/><path class="cls-1" d="M47.09,69.93h0a2.5,2.5,0,0,1-1.78-.75L30.39,54.06c-3.66-3.66-5.69-8.08-5.69-12.42,0-7.16,5-12.17,12-12.17,5.23,0,7.87,2.13,10.33,4.87,2.46-2.75,5.1-4.87,10.33-4.87,7.1,0,12.05,5,12.05,12.17,0,4.34-2,8.76-5.7,12.44L48.87,69.19A2.5,2.5,0,0,1,47.09,69.93ZM36.75,34.47c-4.35,0-7,2.75-7,7.17,0,3,1.5,6.17,4.24,8.9L47.09,63.87,60.22,50.55c2.75-2.75,4.25-5.91,4.25-8.91,0-4.42-2.7-7.17-7.05-7.17-3.9,0-5.16,1.48-7.91,4.71l-.53.62a2.5,2.5,0,0,1-1.9.88h0a2.5,2.5,0,0,1-1.9-.87l-.53-.62C41.91,35.94,40.66,34.47,36.75,34.47Z"/></svg>