<svg id="Layer_1" data-name="Layer 1" xmlns="http://www.w3.org/2000/svg" viewBox="0 0 102.68 109.07"><defs><style>.cls-1{fill:#1a1a1a;}</style></defs><title>icon-family</title><path class="cls-1" d="M88.74,109.07H63.25a2.5,2.5,0,0,1-2.5-2.5V79.19H42.19v27.38a2.5,2.5,0,0,1-2.5,2.5H14.2a2.5,2.5,0,0,1-2.5-2.5V53.49a2.5,2.5,0,0,1,.71-1.75L49.79,13.43a2.5,2.5,0,0,1,1.79-.75h0a2.5,2.5,0,0,1,1.79.76L90.54,51.75a2.5,2.5,0,0,1,.71,1.74v53.08A2.5,2.5,0,0,1,88.74,109.07Zm-23-5H86.24V54.51L51.57,18.76,16.7,54.51v49.56H37.19V76.69a2.5,2.5,0,0,1,2.5-2.5H63.25a2.5,2.5,0,0,1,2.5,2.5Z"/><path class="cls-1" d="M2.5,55.75A2.5,2.5,0,0,1,.7,51.52L49.59.77A2.5,2.5,0,0,1,51.39,0h0a2.5,2.5,0,0,1,1.79.75L102,50.65a2.5,2.5,0,1,1-3.58,3.5l-47-48.06L4.3,55A2.49,2.49,0,0,1,2.5,55.75Z"/><path class="cls-1" d="M22,35.51A2.5,2.5,0,0,1,19.5,33V10a2.5,2.5,0,0,1,5,0V33A2.5,2.5,0,0,1,22,35.51Z"/></svg>